<mxfile host="Electron" modified="2024-07-16T17:27:03.552Z" agent="Mozilla/5.0 (Macintosh; Intel Mac OS X 10_15_7) AppleWebKit/537.36 (KHTML, like Gecko) draw.io/21.5.0 Chrome/112.0.5615.204 Electron/24.5.1 Safari/537.36" etag="5ToQNh9DhITK5yCw89yp" version="21.5.0" type="device">
  <diagram name="MDK" id="6TCVPFabt-ymf4xc3p5a">
    <mxGraphModel dx="1004" dy="709" grid="0" gridSize="10" guides="1" tooltips="1" connect="1" arrows="1" fold="1" page="1" pageScale="1" pageWidth="850" pageHeight="1100" math="1" shadow="0">
      <root>
        <mxCell id="0" />
        <mxCell id="1" parent="0" />
        <mxCell id="_XnF-U50cAb73jW_6aDd-10" style="edgeStyle=orthogonalEdgeStyle;rounded=0;orthogonalLoop=1;jettySize=auto;html=1;exitX=0.5;exitY=0;exitDx=0;exitDy=0;" edge="1" parent="1" source="_XnF-U50cAb73jW_6aDd-1">
          <mxGeometry relative="1" as="geometry">
            <mxPoint x="259" y="291" as="targetPoint" />
            <Array as="points">
              <mxPoint x="239" y="291" />
            </Array>
          </mxGeometry>
        </mxCell>
        <mxCell id="_XnF-U50cAb73jW_6aDd-1" value="\(m_1\)" style="whiteSpace=wrap;html=1;aspect=fixed;" vertex="1" parent="1">
          <mxGeometry x="199" y="311" width="80" height="80" as="geometry" />
        </mxCell>
        <mxCell id="_XnF-U50cAb73jW_6aDd-2" value="" style="endArrow=none;html=1;rounded=0;" edge="1" parent="1">
          <mxGeometry width="50" height="50" relative="1" as="geometry">
            <mxPoint x="139" y="401" as="sourcePoint" />
            <mxPoint x="339" y="401" as="targetPoint" />
          </mxGeometry>
        </mxCell>
        <mxCell id="_XnF-U50cAb73jW_6aDd-3" value="xxxxxxxxxxxxx" style="text;html=1;align=center;verticalAlign=middle;resizable=0;points=[];autosize=1;strokeColor=none;fillColor=none;" vertex="1" parent="1">
          <mxGeometry x="189" y="381" width="100" height="30" as="geometry" />
        </mxCell>
        <mxCell id="_XnF-U50cAb73jW_6aDd-4" value="\(b_1\)" style="text;html=1;align=center;verticalAlign=middle;resizable=0;points=[];autosize=1;strokeColor=none;fillColor=none;" vertex="1" parent="1">
          <mxGeometry x="159" y="377" width="60" height="30" as="geometry" />
        </mxCell>
        <mxCell id="_XnF-U50cAb73jW_6aDd-6" value="" style="endArrow=none;html=1;rounded=0;" edge="1" parent="1">
          <mxGeometry width="50" height="50" relative="1" as="geometry">
            <mxPoint x="339" y="401" as="sourcePoint" />
            <mxPoint x="339" y="281" as="targetPoint" />
          </mxGeometry>
        </mxCell>
        <mxCell id="_XnF-U50cAb73jW_6aDd-7" value="" style="pointerEvents=1;verticalLabelPosition=bottom;shadow=0;dashed=0;align=center;html=1;verticalAlign=top;shape=mxgraph.electrical.resistors.resistor_2;" vertex="1" parent="1">
          <mxGeometry x="279" y="341" width="60" height="20" as="geometry" />
        </mxCell>
        <mxCell id="_XnF-U50cAb73jW_6aDd-8" value="\(K_1\)" style="text;html=1;align=center;verticalAlign=middle;resizable=0;points=[];autosize=1;strokeColor=none;fillColor=none;" vertex="1" parent="1">
          <mxGeometry x="279" y="319" width="60" height="30" as="geometry" />
        </mxCell>
        <mxCell id="_XnF-U50cAb73jW_6aDd-11" value="\(v_1\)" style="text;html=1;align=center;verticalAlign=middle;resizable=0;points=[];autosize=1;strokeColor=none;fillColor=none;" vertex="1" parent="1">
          <mxGeometry x="214" y="261" width="60" height="30" as="geometry" />
        </mxCell>
        <mxCell id="_XnF-U50cAb73jW_6aDd-12" value="" style="endArrow=classic;html=1;rounded=0;entryX=0;entryY=0.5;entryDx=0;entryDy=0;" edge="1" parent="1" target="_XnF-U50cAb73jW_6aDd-1">
          <mxGeometry width="50" height="50" relative="1" as="geometry">
            <mxPoint x="159" y="351" as="sourcePoint" />
            <mxPoint x="189" y="299" as="targetPoint" />
          </mxGeometry>
        </mxCell>
        <mxCell id="_XnF-U50cAb73jW_6aDd-13" value="\(F_i\)" style="text;html=1;align=center;verticalAlign=middle;resizable=0;points=[];autosize=1;strokeColor=none;fillColor=none;" vertex="1" parent="1">
          <mxGeometry x="139" y="319" width="50" height="30" as="geometry" />
        </mxCell>
        <mxCell id="_XnF-U50cAb73jW_6aDd-17" style="edgeStyle=orthogonalEdgeStyle;rounded=0;orthogonalLoop=1;jettySize=auto;html=1;exitX=1;exitY=0.5;exitDx=0;exitDy=0;" edge="1" parent="1" source="_XnF-U50cAb73jW_6aDd-14">
          <mxGeometry relative="1" as="geometry">
            <mxPoint x="651" y="343" as="targetPoint" />
          </mxGeometry>
        </mxCell>
        <mxCell id="_XnF-U50cAb73jW_6aDd-14" value="\(\dot{E}\)&lt;br&gt;\( (m_1,K_1) \)" style="rounded=0;whiteSpace=wrap;html=1;" vertex="1" parent="1">
          <mxGeometry x="483" y="313" width="120" height="60" as="geometry" />
        </mxCell>
        <mxCell id="_XnF-U50cAb73jW_6aDd-15" value="" style="endArrow=classic;html=1;rounded=0;entryX=0;entryY=0.5;entryDx=0;entryDy=0;" edge="1" parent="1" target="_XnF-U50cAb73jW_6aDd-14">
          <mxGeometry width="50" height="50" relative="1" as="geometry">
            <mxPoint x="431" y="343" as="sourcePoint" />
            <mxPoint x="465" y="305" as="targetPoint" />
          </mxGeometry>
        </mxCell>
        <mxCell id="_XnF-U50cAb73jW_6aDd-16" value="\(\dot{W}_{in} (F_{in}v_1) \)" style="text;html=1;align=center;verticalAlign=middle;resizable=0;points=[];autosize=1;strokeColor=none;fillColor=none;" vertex="1" parent="1">
          <mxGeometry x="350" y="313" width="161" height="26" as="geometry" />
        </mxCell>
        <mxCell id="_XnF-U50cAb73jW_6aDd-18" value="\( \dot{Q}_{out} (b_1 v_1^2)\)" style="text;html=1;align=center;verticalAlign=middle;resizable=0;points=[];autosize=1;strokeColor=none;fillColor=none;" vertex="1" parent="1">
          <mxGeometry x="561" y="311" width="171" height="26" as="geometry" />
        </mxCell>
        <mxCell id="_XnF-U50cAb73jW_6aDd-23" style="edgeStyle=orthogonalEdgeStyle;rounded=0;orthogonalLoop=1;jettySize=auto;html=1;exitX=0.5;exitY=0;exitDx=0;exitDy=0;entryX=0.5;entryY=0;entryDx=0;entryDy=0;endArrow=none;endFill=0;" edge="1" parent="1" source="_XnF-U50cAb73jW_6aDd-19" target="_XnF-U50cAb73jW_6aDd-20">
          <mxGeometry relative="1" as="geometry">
            <Array as="points">
              <mxPoint x="194" y="529" />
              <mxPoint x="346" y="529" />
            </Array>
          </mxGeometry>
        </mxCell>
        <mxCell id="_XnF-U50cAb73jW_6aDd-19" value="\(F_{in}\)" style="ellipse;whiteSpace=wrap;html=1;aspect=fixed;" vertex="1" parent="1">
          <mxGeometry x="154" y="576" width="80" height="80" as="geometry" />
        </mxCell>
        <mxCell id="_XnF-U50cAb73jW_6aDd-24" style="edgeStyle=orthogonalEdgeStyle;rounded=0;orthogonalLoop=1;jettySize=auto;html=1;exitX=0.5;exitY=0;exitDx=0;exitDy=0;entryX=0.5;entryY=0;entryDx=0;entryDy=0;endArrow=none;endFill=0;" edge="1" parent="1" source="_XnF-U50cAb73jW_6aDd-20" target="_XnF-U50cAb73jW_6aDd-21">
          <mxGeometry relative="1" as="geometry">
            <Array as="points">
              <mxPoint x="346" y="529" />
              <mxPoint x="483" y="529" />
            </Array>
          </mxGeometry>
        </mxCell>
        <mxCell id="_XnF-U50cAb73jW_6aDd-26" style="edgeStyle=orthogonalEdgeStyle;rounded=0;orthogonalLoop=1;jettySize=auto;html=1;exitX=0.5;exitY=1;exitDx=0;exitDy=0;entryX=0.5;entryY=1;entryDx=0;entryDy=0;endArrow=none;endFill=0;" edge="1" parent="1" source="_XnF-U50cAb73jW_6aDd-20" target="_XnF-U50cAb73jW_6aDd-19">
          <mxGeometry relative="1" as="geometry">
            <Array as="points">
              <mxPoint x="346" y="708" />
              <mxPoint x="194" y="708" />
            </Array>
          </mxGeometry>
        </mxCell>
        <mxCell id="_XnF-U50cAb73jW_6aDd-20" value="\(m_1\)" style="whiteSpace=wrap;html=1;aspect=fixed;" vertex="1" parent="1">
          <mxGeometry x="306" y="576" width="80" height="80" as="geometry" />
        </mxCell>
        <mxCell id="_XnF-U50cAb73jW_6aDd-25" style="edgeStyle=orthogonalEdgeStyle;rounded=0;orthogonalLoop=1;jettySize=auto;html=1;exitX=0.5;exitY=0;exitDx=0;exitDy=0;entryX=0.5;entryY=0;entryDx=0;entryDy=0;endArrow=none;endFill=0;" edge="1" parent="1" source="_XnF-U50cAb73jW_6aDd-21" target="_XnF-U50cAb73jW_6aDd-22">
          <mxGeometry relative="1" as="geometry">
            <Array as="points">
              <mxPoint x="483" y="529" />
              <mxPoint x="633" y="529" />
            </Array>
          </mxGeometry>
        </mxCell>
        <mxCell id="_XnF-U50cAb73jW_6aDd-27" style="edgeStyle=orthogonalEdgeStyle;rounded=0;orthogonalLoop=1;jettySize=auto;html=1;exitX=0.5;exitY=1;exitDx=0;exitDy=0;entryX=0.5;entryY=1;entryDx=0;entryDy=0;endArrow=none;endFill=0;" edge="1" parent="1" source="_XnF-U50cAb73jW_6aDd-21" target="_XnF-U50cAb73jW_6aDd-20">
          <mxGeometry relative="1" as="geometry">
            <Array as="points">
              <mxPoint x="483" y="708" />
              <mxPoint x="346" y="708" />
            </Array>
          </mxGeometry>
        </mxCell>
        <mxCell id="_XnF-U50cAb73jW_6aDd-21" value="\(b_1\)" style="whiteSpace=wrap;html=1;aspect=fixed;" vertex="1" parent="1">
          <mxGeometry x="443" y="576" width="80" height="80" as="geometry" />
        </mxCell>
        <mxCell id="_XnF-U50cAb73jW_6aDd-28" style="edgeStyle=orthogonalEdgeStyle;rounded=0;orthogonalLoop=1;jettySize=auto;html=1;exitX=0.5;exitY=1;exitDx=0;exitDy=0;entryX=0.5;entryY=1;entryDx=0;entryDy=0;endArrow=none;endFill=0;" edge="1" parent="1" source="_XnF-U50cAb73jW_6aDd-22" target="_XnF-U50cAb73jW_6aDd-21">
          <mxGeometry relative="1" as="geometry">
            <Array as="points">
              <mxPoint x="633" y="708" />
              <mxPoint x="483" y="708" />
            </Array>
          </mxGeometry>
        </mxCell>
        <mxCell id="_XnF-U50cAb73jW_6aDd-22" value="\(K_1\)" style="whiteSpace=wrap;html=1;aspect=fixed;" vertex="1" parent="1">
          <mxGeometry x="593" y="576" width="80" height="80" as="geometry" />
        </mxCell>
        <mxCell id="_XnF-U50cAb73jW_6aDd-29" value="" style="endArrow=classic;html=1;rounded=0;strokeColor=#FF0000;" edge="1" parent="1">
          <mxGeometry width="50" height="50" relative="1" as="geometry">
            <mxPoint x="289" y="582" as="sourcePoint" />
            <mxPoint x="289" y="647" as="targetPoint" />
          </mxGeometry>
        </mxCell>
        <mxCell id="_XnF-U50cAb73jW_6aDd-30" value="" style="endArrow=classic;html=1;rounded=0;strokeColor=#FF0000;" edge="1" parent="1">
          <mxGeometry width="50" height="50" relative="1" as="geometry">
            <mxPoint x="433" y="580" as="sourcePoint" />
            <mxPoint x="433" y="645" as="targetPoint" />
          </mxGeometry>
        </mxCell>
        <mxCell id="_XnF-U50cAb73jW_6aDd-31" value="" style="endArrow=classic;html=1;rounded=0;strokeColor=#FF0000;" edge="1" parent="1">
          <mxGeometry width="50" height="50" relative="1" as="geometry">
            <mxPoint x="583" y="583.5" as="sourcePoint" />
            <mxPoint x="583" y="648.5" as="targetPoint" />
          </mxGeometry>
        </mxCell>
        <mxCell id="_XnF-U50cAb73jW_6aDd-32" value="\(F_{k1}\)" style="text;html=1;align=center;verticalAlign=middle;resizable=0;points=[];autosize=1;strokeColor=none;fillColor=none;fontColor=#FF0000;" vertex="1" parent="1">
          <mxGeometry x="532" y="603" width="67" height="26" as="geometry" />
        </mxCell>
        <mxCell id="_XnF-U50cAb73jW_6aDd-33" value="\(F_{b1}\)" style="text;html=1;align=center;verticalAlign=middle;resizable=0;points=[];autosize=1;strokeColor=none;fillColor=none;fontColor=#FF0000;" vertex="1" parent="1">
          <mxGeometry x="386" y="599" width="68" height="26" as="geometry" />
        </mxCell>
        <mxCell id="_XnF-U50cAb73jW_6aDd-34" value="\(F_{m1}\)" style="text;html=1;align=center;verticalAlign=middle;resizable=0;points=[];autosize=1;strokeColor=none;fillColor=none;fontColor=#FF0000;" vertex="1" parent="1">
          <mxGeometry x="233" y="599" width="71" height="26" as="geometry" />
        </mxCell>
        <mxCell id="_XnF-U50cAb73jW_6aDd-35" value="" style="endArrow=classic;html=1;rounded=0;strokeColor=#FF0000;" edge="1" parent="1">
          <mxGeometry width="50" height="50" relative="1" as="geometry">
            <mxPoint x="147" y="639" as="sourcePoint" />
            <mxPoint x="147" y="568" as="targetPoint" />
          </mxGeometry>
        </mxCell>
        <mxCell id="_XnF-U50cAb73jW_6aDd-36" value="\(F_{in}\)" style="text;html=1;align=center;verticalAlign=middle;resizable=0;points=[];autosize=1;strokeColor=none;fillColor=none;fontColor=#FF0000;" vertex="1" parent="1">
          <mxGeometry x="95" y="580" width="64" height="26" as="geometry" />
        </mxCell>
        <mxCell id="_XnF-U50cAb73jW_6aDd-37" value="\(v_1\)" style="text;html=1;align=center;verticalAlign=middle;resizable=0;points=[];autosize=1;strokeColor=none;fillColor=none;fontColor=#0000FF;" vertex="1" parent="1">
          <mxGeometry x="374" y="498" width="52" height="26" as="geometry" />
        </mxCell>
        <mxCell id="_XnF-U50cAb73jW_6aDd-38" value="" style="ellipse;whiteSpace=wrap;html=1;fillColor=none;strokeColor=#0000FF;" vertex="1" parent="1">
          <mxGeometry x="179" y="524" width="460" height="16" as="geometry" />
        </mxCell>
      </root>
    </mxGraphModel>
  </diagram>
</mxfile>
